<svg width="41" height="41" viewBox="0 0 41 41" fill="none" xmlns="http://www.w3.org/2000/svg">
<path fill-rule="evenodd" clip-rule="evenodd" d="M13.7566 1.42023C16.0599 0.728975 18.4965 0.459515 20.8979 0.650705C24.7353 0.959802 28.5425 2.42614 31.3974 5.01195C31.7203 4.77828 32.0556 4.57817 32.4409 4.41282C33.4832 3.92485 34.875 4.03027 35.8506 4.72002C36.8432 5.38462 37.521 6.32994 38.076 7.29869C39.1551 9.26533 39.8149 11.3587 40.1259 13.5925C40.5747 16.7884 40.23 20.3568 38.5749 23.246C37.8705 24.7132 36.1167 25.9794 34.402 25.5611C34.0016 25.4823 33.6174 25.3469 33.2619 25.1541C33.0899 25.4677 32.9063 25.7757 32.7104 26.077C31.2765 28.6367 28.3306 30.2254 25.7848 31.111C24.1697 31.8209 21.7188 32.1248 20.3709 33.185C19.2316 34.0729 17.1596 33.9734 16.3709 35.185C15.6117 36.3372 15.0343 37.8172 13.8709 38.685C12.7747 39.5432 10.7814 40.0764 9.37095 39.185C8.87095 38.685 7.83269 38.476 7.87095 36.685C7.87095 35.685 7.87095 35.185 7.37095 34.185C7.37095 33.685 7.5373 33.4577 6.87095 32.685C6.00863 31.685 6.37095 32.185 4.87095 30.685C4.37095 29.685 2.62174 29.8469 2.17868 28.6963C1.69813 27.5522 1.15738 26.1761 0.998244 24.8375C0.719655 23.4849 0.957066 22.1348 1.48567 20.9004C1.38142 20.6892 1.29416 20.4713 1.2174 20.2532C0.339113 17.5801 0.58129 14.4089 2.39011 12.0792C2.39403 12.0743 2.39801 12.0692 2.40194 12.0642C3.13762 11.1628 3.9761 10.3878 4.8824 9.71176C4.94094 9.25059 5.06431 8.80456 5.21986 8.3743C6.59802 4.72222 10.1836 2.46984 13.7566 1.42023ZM16.8696 23.6634C16.1572 22.1769 14.1491 22.5203 13.0239 23.6634C12.3397 24.3023 11.235 25.1525 10.3759 25.4972C9.70944 25.4972 9.98095 25.4998 10.3691 25.4998C10.5783 26.1426 10.7342 26.7585 10.8175 27.4306C10.9222 28.3479 10.9037 28.2589 10.8175 29.185C11.9723 27.6791 14.1259 27.6012 15.6184 26.6764C16.7298 25.8205 17.6131 24.7348 16.8696 23.6634Z" fill="white"/>
<path d="M34.9856 13.5351C35.2303 13.4844 35.47 13.642 35.5207 13.8866C35.5887 14.2153 35.6048 14.6537 35.6018 15.0419C35.5987 15.4388 35.5755 15.8215 35.5549 16.0556C35.5328 16.3042 35.3133 16.4874 35.0647 16.4657C34.8158 16.4437 34.6306 16.2244 34.6526 15.9755C34.6713 15.7628 34.6936 15.4053 34.6965 15.0351C34.6994 14.6559 34.6824 14.2982 34.635 14.0692C34.5848 13.825 34.7415 13.586 34.9856 13.5351Z" fill="black"/>
<path d="M25.3908 12.9354C26.882 12.6839 28.4132 12.6761 29.8996 12.9433C30.0142 12.9639 30.1274 12.9866 30.2414 13.0106C30.3609 13.0364 30.4713 13.1011 30.5471 13.1991C30.6227 13.297 30.6579 13.4192 30.6447 13.5399C30.6314 13.6607 30.5709 13.7732 30.4758 13.8524C30.3808 13.9316 30.2589 13.9712 30.1369 13.9706C30.0277 13.9702 29.9195 13.9703 29.8108 13.9716C28.4012 13.9899 27.0075 14.1321 25.634 14.3632C25.1051 14.4537 24.5699 14.5127 24.0334 14.5556C23.9254 14.5648 23.82 14.5718 23.717 14.58C23.6009 14.592 23.4791 14.5759 23.3742 14.5204C23.2695 14.4649 23.1897 14.3757 23.1516 14.2685C23.1136 14.1611 23.1189 14.0416 23.1653 13.9325C23.2116 13.8235 23.2952 13.7346 23.3928 13.6708C23.4983 13.6051 23.6046 13.5453 23.7141 13.4892C24.2521 13.2126 24.8148 13.0341 25.3908 12.9354Z" fill="black"/>
<path d="M33.8567 9.07509C33.9862 9.01259 34.1346 9.00189 34.2629 9.04677C34.391 9.09162 34.4902 9.18786 34.5422 9.31337C34.56 9.35516 34.5765 9.39725 34.592 9.43837C34.8403 10.1506 34.9805 10.7966 35.0979 11.5136C35.1036 11.5535 35.1099 11.5969 35.1145 11.6395C35.124 11.7354 35.0938 11.8345 35.0334 11.913C34.9728 11.9915 34.8864 12.0434 34.7912 12.0585C34.696 12.0736 34.5978 12.0499 34.5158 11.994C34.4343 11.9381 34.3753 11.8537 34.3547 11.7597C34.348 11.7308 34.3388 11.6972 34.3303 11.6649C34.1599 11.0543 33.9278 10.3854 33.6623 9.84072C33.6473 9.81151 33.6325 9.78314 33.6184 9.75869C33.5525 9.63972 33.5384 9.50217 33.5832 9.37392C33.6279 9.24584 33.7275 9.13762 33.8567 9.07509Z" fill="black"/>
<path d="M22.7971 8.92958C23.3501 8.75811 23.9062 8.70002 24.4592 8.74208C26.3118 8.8861 28.1214 9.39637 29.7639 10.2196C29.8808 10.2784 29.998 10.3403 30.1155 10.4032C30.2217 10.461 30.3106 10.5515 30.3576 10.6649C30.4046 10.7784 30.4068 10.9045 30.3635 11.0165C30.3201 11.1282 30.2332 11.2192 30.1223 11.2714C30.0111 11.3235 29.8842 11.3316 29.7668 11.3026C29.6436 11.2722 29.5206 11.2428 29.3996 11.2147C27.7041 10.8202 26.0175 10.5578 24.3303 10.4257C23.8278 10.3875 23.3354 10.2928 22.8322 10.1503C22.7122 10.1158 22.5817 10.0786 22.4778 10.0399C22.3684 10.0102 22.2617 9.96079 22.1789 9.88271C22.0961 9.80433 22.0435 9.70356 22.0334 9.59658C22.0235 9.48948 22.0562 9.38036 22.1233 9.28798C22.1903 9.19585 22.2868 9.12839 22.3889 9.079C22.5365 9.01949 22.6605 8.97177 22.7971 8.92958Z" fill="black"/>
<path d="M24.8576 5.85829C25.4918 5.85168 26.1046 5.95369 26.6877 6.1454C27.7357 6.49279 28.7426 7.00168 29.6213 7.704C29.6969 7.76467 29.7727 7.82693 29.8459 7.89052C29.9356 7.96975 30.0023 8.07672 30.0256 8.19619C30.0489 8.31551 30.0273 8.43801 29.9641 8.53798C29.9009 8.63773 29.7995 8.70905 29.6819 8.73915C29.564 8.76923 29.4393 8.75393 29.3293 8.70693C29.248 8.67282 29.1658 8.63928 29.0842 8.60634C28.1373 8.22617 27.1781 7.90619 26.2131 7.58583C25.6776 7.40964 25.1504 7.18984 24.6311 6.93935C24.5517 6.90093 24.4692 6.86076 24.3918 6.82216C24.287 6.77285 24.1901 6.69979 24.1272 6.60048C24.0643 6.50119 24.0395 6.38503 24.0588 6.27431C24.0782 6.16361 24.1417 6.06316 24.2346 5.99111C24.3274 5.91923 24.4427 5.88279 24.5578 5.87197C24.657 5.8642 24.76 5.85977 24.8576 5.85829Z" fill="black"/>
<path fill-rule="evenodd" clip-rule="evenodd" d="M13.4758 0.888568C15.8446 0.153913 18.3656 -0.137514 20.8489 0.0604432C24.7487 0.373354 28.6056 1.90125 31.468 4.5624C31.7231 4.37938 31.9943 4.21292 32.302 4.06728C33.4039 3.48884 35.0284 3.5615 36.1301 4.30849C37.2526 5.02147 37.9931 6.01841 38.5989 7.02529C39.7751 9.07883 40.4695 11.1888 40.802 13.5643C41.2664 16.8067 40.8531 20.6414 39.05 23.5858C38.276 25.1445 36.2136 26.5589 34.3469 26.0214C34.0539 25.9533 33.7725 25.859 33.5051 25.7362C33.3705 25.9821 33.2328 26.2273 33.0832 26.4667C31.6946 29.1283 28.3974 30.9586 25.9582 31.8075C24.2368 32.5727 22.593 33.2349 21.0403 34.0702C19.5079 34.8888 18.0786 35.8527 16.9074 37.036C15.8942 38.0502 14.7782 39.0078 13.3508 39.6796C12.0205 40.3544 9.77849 40.6244 8.3508 39.2499C6.76122 37.8875 6.40649 35.9504 6.72971 34.1259C6.66647 34.0556 6.60426 33.9844 6.54026 33.9149C5.10551 32.3434 3.43767 30.9942 1.99436 29.12C1.14787 28.0065 0.350132 26.6394 0.126195 25.0585C-0.195478 23.5466 0.126521 21.9934 0.76682 20.6073C0.742774 20.55 0.718992 20.4929 0.696507 20.4354C-0.319108 17.675 -0.138743 14.3279 1.80198 11.8183C1.8061 11.813 1.81051 11.8069 1.81467 11.8017C2.60224 10.839 3.49516 10.0284 4.45432 9.3329C4.51667 8.96591 4.61335 8.61088 4.72971 8.26454C6.08803 4.40642 9.80404 2.002 13.4758 0.888568ZM20.6877 2.10634C18.4543 1.92898 16.1903 2.14575 14.0119 2.73427C10.7616 3.59794 7.57928 5.37254 6.03049 8.32021C7.41259 7.53313 8.88277 6.92578 10.3528 6.41689C10.6779 6.30849 11.0049 6.20612 11.3332 6.1122C11.4597 6.07628 11.5973 6.0857 11.717 6.14345C11.8365 6.2013 11.9291 6.30247 11.9739 6.42568C12.0185 6.54889 12.0118 6.6855 11.9572 6.80654C11.9025 6.92761 11.8029 7.02345 11.6828 7.07704C11.384 7.21095 11.0847 7.34967 10.7883 7.49306C7.93054 8.90461 5.10396 10.5877 3.22483 12.912C3.22173 12.9159 3.21814 12.9198 3.21506 12.9237C1.93226 14.5553 1.44323 16.8387 1.66623 19.0409C2.17589 18.3034 2.75368 17.6567 3.32932 17.1483C5.22278 15.4274 7.16259 14.6154 9.16526 13.6347C9.59021 13.4382 10.0234 13.2444 10.4553 13.0614C10.5767 13.0104 10.7144 13.0043 10.8401 13.0477C10.9657 13.0913 11.0693 13.1812 11.1281 13.2987C11.1869 13.4163 11.1969 13.5529 11.1565 13.6796C11.1159 13.8065 11.0272 13.9118 10.9133 13.9784C10.5199 14.2091 10.1227 14.4503 9.73264 14.6913C7.94396 15.8248 5.93891 17.0425 4.7092 18.3739C2.89295 20.3848 1.87996 22.3546 2.35666 24.7108C2.53158 25.7551 3.09284 26.7517 3.8342 27.7265C4.91212 29.1407 6.24483 30.6007 7.27854 32.3163C7.64165 31.4796 8.12738 30.7305 8.66623 30.1561C9.26848 29.4218 9.95151 28.7199 10.7463 28.1288C10.4265 27.5926 10.1283 27.0395 9.95237 26.3602C9.9457 26.3335 9.94001 26.3064 9.93479 26.2792C9.9184 26.2837 9.90238 26.2904 9.88596 26.2948C9.01888 26.5232 8.09661 26.4297 7.20823 26.2079C7.09367 26.1755 6.99026 26.092 6.92014 25.9862C6.85029 25.8799 6.8197 25.7592 6.83518 25.6415C6.8508 25.5237 6.91186 25.4156 7.00705 25.331C7.10233 25.2468 7.22373 25.1937 7.34299 25.1923C8.04976 25.1618 8.75172 24.8389 9.43088 24.6474C9.69443 24.5722 9.95446 24.4815 10.2072 24.3759C10.9288 24.0743 11.5926 23.6513 12.1428 23.1239C12.8392 22.4759 13.644 21.8351 14.799 21.5927C15.9761 21.2728 17.4511 22.1142 17.926 23.0888C18.1565 23.4784 18.3612 23.9667 18.3684 24.5438C18.3808 25.1216 18.1476 25.6809 17.8742 26.0683C17.3142 26.8482 16.6809 27.264 16.174 27.6991C14.5651 28.7407 13.6194 28.6104 12.6877 29.2372C11.7711 29.7706 10.9759 30.548 10.2668 31.4442C8.5836 33.4362 8.06353 36.1691 9.80979 37.6259C11.0117 38.8293 13.6311 37.2265 15.2942 35.4501C16.6755 34.0387 18.2988 32.9526 19.967 32.0604C21.6487 31.156 23.4278 30.4697 25.0764 29.7919C27.9818 28.7799 30.0254 27.8229 31.6213 25.4804C32.4522 24.3471 33.1183 23.0664 33.6252 21.7157C33.9954 20.7188 34.3025 19.6601 34.4358 18.6395C34.4504 18.508 34.5123 18.384 34.6125 18.2958C34.7128 18.2076 34.8429 18.1618 34.9748 18.1688C35.1065 18.176 35.2304 18.2357 35.3205 18.3339C35.4108 18.4323 35.4596 18.5619 35.4602 18.6942C35.4409 19.8875 35.2327 21.0119 34.9387 22.1337C34.706 23.0005 34.4043 23.8532 34.0315 24.6806C34.2032 24.7192 34.3766 24.7447 34.5461 24.7548C35.8805 24.8517 36.8203 23.9648 37.3489 22.7138C38.6335 19.9019 38.7969 16.9768 38.3801 13.8261C38.1209 11.9281 37.5398 9.82504 36.7043 8.04872C35.8578 6.27303 34.5863 4.7347 32.7678 5.28798C32.6202 5.32841 32.4761 5.37829 32.3322 5.43447C32.471 5.5865 32.6079 5.74109 32.7405 5.89931C33.1265 6.36874 33.4784 6.86534 33.7844 7.38857C33.8504 7.50248 33.8756 7.63811 33.8489 7.76845C33.8221 7.89858 33.7464 8.0122 33.6379 8.08583C33.5292 8.1595 33.3948 8.18835 33.2639 8.16494C33.1331 8.14143 33.017 8.06718 32.9358 7.96376C32.5952 7.53349 32.2201 7.13009 31.8205 6.75087C28.7992 3.94215 24.7397 2.43732 20.6877 2.10634ZM15.1262 23.3681C14.5686 23.4608 13.911 23.8871 13.3508 24.4081C12.6558 25.0527 11.8476 25.5522 10.9914 25.912C11.0118 25.9709 11.0302 26.0301 11.0451 26.0907C11.164 26.5659 11.3314 27.0932 11.4553 27.6493C11.5363 27.6003 11.6192 27.5533 11.7024 27.5067C12.8561 26.8033 14.5265 26.5623 14.9543 26.2089C15.5241 25.7551 16.0649 25.3543 16.3254 24.9872C16.4549 24.805 16.4958 24.6803 16.4992 24.5536C16.5032 24.4257 16.4526 24.2392 16.3283 24.0224C15.9958 23.4667 15.6776 23.286 15.1262 23.3681Z" fill="black"/>
</svg>
