<svg width="41" height="42" viewBox="0 0 41 42" fill="none" xmlns="http://www.w3.org/2000/svg">
<path fill-rule="evenodd" clip-rule="evenodd" d="M13.6692 1.41888C15.9725 0.727632 18.4091 0.458172 20.8105 0.649362C24.6479 0.958459 28.4551 2.42479 31.31 5.01061C31.6329 4.77694 31.9682 4.57682 32.3535 4.41148C33.3958 3.92351 34.7876 4.02893 35.7632 4.71868C36.7558 5.38327 37.4336 6.3286 37.9886 7.29735C39.0677 9.26398 39.7274 11.3573 40.0385 13.5911C40.4873 16.787 40.1425 20.3554 38.4875 23.2447C37.7831 24.7118 36.0293 25.9781 34.3146 25.5598C33.9142 25.4809 33.53 25.3455 33.1745 25.1527C33.0025 25.4663 32.8189 25.7744 32.623 26.0757C31.1891 28.6353 28.2431 30.2241 25.6974 31.1096C24.0823 31.8195 22.533 32.5994 21.1851 33.6596C20.0458 34.5475 19.0587 35.623 18.27 36.8345C17.5108 37.9868 16.6428 39.0947 15.4794 39.9625C14.3832 40.8207 12.5739 41.3992 11.1634 40.5077C9.43722 39.5512 8.79027 37.7767 8.82852 35.9856C8.43619 36.3626 7.97439 36.6767 7.44988 36.8514C7.20713 36.9409 6.96178 37.0082 6.71596 37.0599C3.92749 37.4507 2.46725 34.4658 2.61563 32.4021C2.61466 31.106 2.53433 29.8456 2.09126 28.6949C1.61072 27.5509 1.06996 26.1748 0.910828 24.8361C0.632238 23.4836 0.86965 22.1334 1.39826 20.8991C1.294 20.6879 1.20675 20.47 1.12999 20.2519C0.251696 17.5787 0.493874 14.4075 2.3027 12.0779C2.30661 12.0729 2.31059 12.0679 2.31452 12.0629C3.05021 11.1615 3.88868 10.3865 4.79498 9.71042C4.85353 9.24925 4.97689 8.80322 5.13244 8.37296C6.5106 4.72088 10.0962 2.46849 13.6692 1.41888ZM16.7822 23.662C16.0697 22.1755 14.0617 22.5189 12.9365 23.662C12.2523 24.301 11.1476 25.1512 10.2885 25.4958C9.62202 25.4958 9.89354 25.4985 10.2817 25.4985C10.4909 26.1412 10.6468 26.7572 10.7301 27.4292C10.8348 28.3465 11.0013 29.8519 10.9152 30.7779C12.07 29.272 14.0384 27.5998 15.5309 26.675C16.6424 25.8192 17.5257 24.7335 16.7822 23.662Z" fill="white"/>
<path d="M34.8991 13.5351C35.1436 13.4847 35.3826 13.6422 35.4333 13.8866C35.5013 14.2153 35.5174 14.6537 35.5144 15.0419C35.5113 15.4388 35.4881 15.8214 35.4675 16.0556C35.4454 16.3042 35.226 16.4884 34.9773 16.4667C34.7284 16.4446 34.5432 16.2244 34.5651 15.9755C34.5839 15.7628 34.6062 15.4053 34.6091 15.0351C34.612 14.6559 34.5949 14.2982 34.5476 14.0692C34.4974 13.8249 34.6549 13.5858 34.8991 13.5351Z" fill="black"/>
<path d="M25.3034 12.9354C26.7946 12.6839 28.3258 12.6761 29.8122 12.9433C29.9268 12.9639 30.04 12.9866 30.154 13.0106C30.2735 13.0364 30.3839 13.1011 30.4597 13.1991C30.5353 13.297 30.5705 13.4192 30.5573 13.5399C30.544 13.6607 30.4835 13.7732 30.3884 13.8524C30.2933 13.9316 30.1715 13.9712 30.0495 13.9706C29.9403 13.9702 29.8321 13.9703 29.7233 13.9716C28.3138 13.9899 26.9201 14.1321 25.5466 14.3632C25.0177 14.4537 24.4824 14.5127 23.946 14.5556C23.838 14.5648 23.7326 14.5718 23.6296 14.58C23.5135 14.592 23.3917 14.5759 23.2868 14.5204C23.1821 14.4649 23.1023 14.3757 23.0642 14.2685C23.0262 14.1611 23.0314 14.0416 23.0778 13.9325C23.1242 13.8235 23.2078 13.7346 23.3054 13.6708C23.4108 13.6051 23.5172 13.5453 23.6267 13.4892C24.1647 13.2126 24.7274 13.0341 25.3034 12.9354Z" fill="black"/>
<path d="M33.7692 9.07509C33.8988 9.01259 34.0472 9.00189 34.1755 9.04677C34.3036 9.0916 34.4028 9.18785 34.4548 9.31337C34.4726 9.35516 34.4891 9.39725 34.5046 9.43837C34.7529 10.1507 34.8941 10.7966 35.0114 11.5136C35.0171 11.5534 35.0224 11.597 35.0271 11.6395C35.0365 11.7354 35.0063 11.8345 34.946 11.913C34.8854 11.9915 34.799 12.0434 34.7038 12.0585C34.6087 12.0736 34.5113 12.0499 34.4294 11.994C34.3476 11.9381 34.2879 11.8539 34.2673 11.7597C34.2606 11.7309 34.2523 11.6971 34.2439 11.6649C34.0734 11.0543 33.8404 10.3854 33.5749 9.84072C33.5599 9.81153 33.5451 9.78312 33.531 9.75869C33.4651 9.63973 33.451 9.50215 33.4958 9.37392C33.5404 9.24586 33.6401 9.13764 33.7692 9.07509Z" fill="black"/>
<path d="M22.7097 8.92958C23.2626 8.75811 23.8188 8.70002 24.3718 8.74208C26.2244 8.8861 28.034 9.39637 29.6765 10.2196C29.7934 10.2784 29.9106 10.3403 30.028 10.4032C30.1343 10.461 30.2232 10.5515 30.2702 10.6649C30.3172 10.7784 30.3194 10.9045 30.2761 11.0165C30.2327 11.1282 30.1458 11.2192 30.0349 11.2714C29.9237 11.3235 29.7968 11.3316 29.6794 11.3026C29.5561 11.2722 29.4332 11.2428 29.3122 11.2147C27.6167 10.8202 25.9301 10.5578 24.2429 10.4257C23.7403 10.3875 23.248 10.2928 22.7448 10.1503C22.6248 10.1158 22.4943 10.0786 22.3903 10.0399C22.281 10.0102 22.1743 9.96079 22.0915 9.88271C22.0086 9.80433 21.956 9.70356 21.946 9.59658C21.9361 9.48948 21.9688 9.38036 22.0358 9.28798C22.1028 9.19585 22.1994 9.12839 22.3015 9.079C22.4491 9.01949 22.573 8.97177 22.7097 8.92958Z" fill="black"/>
<path d="M24.7702 5.85829C25.4043 5.85168 26.0172 5.95369 26.6003 6.1454C27.6483 6.49279 28.6552 7.00168 29.5339 7.704C29.6095 7.76467 29.6853 7.82693 29.7585 7.89052C29.8482 7.96975 29.9148 8.07672 29.9382 8.19619C29.9615 8.31551 29.9398 8.43801 29.8767 8.53798C29.8135 8.63773 29.7121 8.70905 29.5944 8.73915C29.4766 8.76923 29.3519 8.75393 29.2419 8.70693C29.1606 8.67282 29.0784 8.63928 28.9968 8.60634C28.0499 8.22617 27.0907 7.90619 26.1257 7.58583C25.5901 7.40964 25.063 7.18984 24.5437 6.93935C24.4643 6.90093 24.3818 6.86076 24.3044 6.82216C24.1995 6.77285 24.1027 6.69979 24.0398 6.60048C23.9768 6.50119 23.9521 6.38503 23.9714 6.27431C23.9908 6.16361 24.0543 6.06316 24.1472 5.99111C24.24 5.91923 24.3552 5.88279 24.4704 5.87197C24.5696 5.8642 24.6726 5.85977 24.7702 5.85829Z" fill="black"/>
<path fill-rule="evenodd" clip-rule="evenodd" d="M13.3884 0.888568C15.7572 0.153913 18.2782 -0.137514 20.7614 0.0604432C24.6613 0.37333 28.5182 1.90126 31.3806 4.5624C31.6357 4.37938 31.9069 4.21292 32.2146 4.06728C33.3165 3.48884 34.941 3.5615 36.0427 4.30849C37.1652 5.02147 37.9057 6.01841 38.5114 7.02529C39.6877 9.07883 40.3821 11.1888 40.7146 13.5643C41.179 16.8067 40.7657 20.6414 38.9626 23.5858C38.1886 25.1445 36.1262 26.5589 34.2595 26.0214C33.967 25.9534 33.6866 25.8587 33.4196 25.7362C33.2849 25.9825 33.1456 26.228 32.9958 26.4677C31.6073 29.1294 28.3106 30.9613 25.8718 31.8095C24.2608 32.5326 22.7655 33.2973 21.4675 34.3183C20.3713 35.1733 19.4261 36.2017 18.6648 37.3671C17.8735 38.5626 16.9696 39.7232 15.7038 40.6659C14.5338 41.5921 12.3882 42.304 10.7136 41.2392C9.14233 40.3636 8.37883 38.8913 8.16475 37.3192C7.948 37.4453 7.71989 37.5514 7.48116 37.6298C7.20481 37.7317 6.92876 37.8071 6.65694 37.8642C3.20741 38.3329 1.63577 34.753 1.81026 32.578C1.81595 31.2983 1.74392 30.1122 1.34444 29.0458C0.900141 27.9672 0.305101 26.4153 0.161825 25.0399C-0.13416 23.5855 0.157667 22.1068 0.752646 20.7743C0.701635 20.6617 0.653483 20.5488 0.609091 20.4354C-0.406535 17.675 -0.226215 14.3279 1.71456 11.8183C1.71871 11.813 1.72308 11.807 1.72726 11.8017C2.51484 10.839 3.40772 10.0284 4.3669 9.3329C4.42925 8.9659 4.52593 8.61089 4.64229 8.26454C6.00059 4.40643 9.71665 2.00202 13.3884 0.888568ZM20.6003 2.10634C18.3668 1.92898 16.1028 2.14575 13.9245 2.73427C10.6744 3.59791 7.49289 5.37278 5.94405 8.32021C7.32592 7.53335 8.79563 6.92568 10.2653 6.41689C10.5905 6.30849 10.9175 6.20612 11.2458 6.1122C11.3723 6.07628 11.5099 6.0857 11.6296 6.14345C11.7491 6.20129 11.8417 6.30246 11.8864 6.42568C11.9311 6.54891 11.9244 6.68547 11.8698 6.80654C11.8151 6.92766 11.7155 7.02344 11.5954 7.07704C11.2965 7.21095 10.9973 7.34966 10.7009 7.49306C7.84311 8.90461 5.01656 10.5877 3.13741 12.912C3.1343 12.916 3.13074 12.9198 3.12765 12.9237C1.80512 14.6058 1.32698 16.9806 1.60226 19.245C2.12433 18.4642 2.72775 17.776 3.33272 17.2294C4.96434 15.7016 6.66353 14.9251 8.40011 14.0048C9.04861 13.6776 9.70489 13.3611 10.3669 13.0624C10.4885 13.0078 10.6276 12.9995 10.7546 13.0429C10.8815 13.0862 10.986 13.1768 11.0456 13.2958C11.1052 13.4148 11.1153 13.5529 11.0739 13.6806C11.0325 13.8082 10.9425 13.9148 10.8259 13.9794C10.2085 14.3227 9.59007 14.6852 8.98214 15.0536C7.39165 16.0409 5.63613 17.0994 4.52999 18.2929C2.702 20.2758 1.63558 22.3421 2.14718 24.7304C2.3545 26.0019 2.7592 26.9267 3.35226 28.2821C3.92681 29.6962 4.03385 31.1966 4.05343 32.5712C3.97461 34.3799 5.16218 35.7897 6.18233 35.6063C6.36082 35.5685 6.52808 35.5217 6.68233 35.4647C7.35236 35.2231 7.77836 34.7777 8.28194 33.9755C9.37545 32.2088 9.93077 29.8975 9.9587 27.6415C9.9616 27.184 9.93745 26.7251 9.88643 26.2685C9.85175 26.2782 9.81774 26.2904 9.78292 26.2997C8.92084 26.5251 8.00366 26.4301 7.12081 26.2089C7.00643 26.1765 6.90379 26.0928 6.8337 25.9872C6.76372 25.8809 6.73243 25.7602 6.74776 25.6425C6.76327 25.5246 6.82435 25.4147 6.91964 25.33C7.01478 25.246 7.13655 25.1929 7.25558 25.1913C7.95782 25.1604 8.65476 24.8402 9.32979 24.6513C9.59226 24.577 9.85065 24.4871 10.1023 24.3827C10.8304 24.0807 11.5009 23.6556 12.0554 23.1239C12.752 22.4756 13.5569 21.8351 14.7126 21.5927C15.8897 21.2728 17.3645 22.1132 17.8396 23.0878C18.0702 23.4776 18.2748 23.9663 18.2819 24.5438C18.2944 25.1217 18.0602 25.6808 17.7868 26.0683C17.2267 26.8484 16.5944 27.265 16.0876 27.7001C13.7003 29.2825 12.2056 30.8756 11.0505 33.2069C11.0135 33.2744 10.9768 33.3418 10.9421 33.4101C10.8091 33.8025 10.6526 34.1907 10.4714 34.5741C9.88289 36.5041 10.2158 38.4778 11.8259 39.3485C13.2364 40.288 15.4865 38.2016 16.7644 36.1308C17.6482 34.7599 18.7763 33.5246 20.0632 32.5224C21.583 31.3256 23.3223 30.4817 24.989 29.7899C27.8945 28.7773 29.9369 27.8216 31.5329 25.4794C32.3677 24.3411 33.0356 23.0537 33.5437 21.6962C33.9105 20.7056 34.2156 19.6534 34.3484 18.6395C34.3631 18.5082 34.425 18.384 34.5251 18.2958C34.6253 18.2078 34.7556 18.1628 34.8874 18.1698C35.0192 18.1769 35.1429 18.2357 35.2331 18.3339C35.3233 18.4321 35.372 18.5611 35.3728 18.6933C35.3542 19.879 35.1485 20.9974 34.8581 22.1122C34.6249 22.9864 34.321 23.8464 33.945 24.6806C34.1165 24.7191 34.2895 24.7447 34.4587 24.7548C35.793 24.8517 36.7328 23.9648 37.2614 22.7138C38.5461 19.9019 38.7095 16.9768 38.2927 13.8261C38.0335 11.9281 37.4524 9.82504 36.6169 8.04872C35.7704 6.27303 34.4988 4.7347 32.6804 5.28798C32.5328 5.32841 32.3887 5.37829 32.2448 5.43447C32.3836 5.58652 32.5205 5.74107 32.653 5.89931C33.0391 6.36874 33.391 6.86534 33.697 7.38857C33.763 7.50248 33.7882 7.63811 33.7614 7.76845C33.7347 7.8986 33.6591 8.01221 33.5505 8.08583C33.4419 8.15942 33.3082 8.18822 33.1775 8.16494C33.0465 8.14152 32.9297 8.0673 32.8484 7.96376C32.5078 7.53351 32.1327 7.13008 31.7331 6.75087C28.7118 3.94216 24.6523 2.4373 20.6003 2.10634ZM15.0388 23.369C14.4813 23.4618 13.8236 23.8882 13.2634 24.4091C12.5898 25.0338 11.8099 25.5226 10.9831 25.8798C11.1608 26.4139 11.2939 26.9639 11.3864 27.5204C11.4599 27.9949 11.5095 28.4745 11.5339 28.956C12.5781 27.8357 13.7592 26.8757 14.8679 26.2079C15.4376 25.7543 15.9786 25.3541 16.239 24.9872C16.3683 24.8051 16.4083 24.6802 16.4118 24.5536C16.4159 24.4259 16.3651 24.2392 16.2409 24.0224C15.9085 23.467 15.59 23.2871 15.0388 23.369Z" fill="black"/>
</svg>
