<svg width="536" height="533" viewBox="0 0 536 533" fill="none" xmlns="http://www.w3.org/2000/svg">
<path d="M301.813 95.6455L303.475 99.8789L306.713 96.6865L373.596 30.7627L369.359 124.579L369.154 129.122L373.411 127.522L461.326 94.502L419.297 178.483L417.262 182.551L421.801 182.821L515.546 188.413L442.991 248.04L439.479 250.927L443.515 253.021L526.88 296.259L436.347 321.22L431.963 322.429L434.8 325.983L493.371 399.391L400.512 385.371L396.016 384.692L397.161 389.093L420.811 479.978L341.683 429.4L337.851 426.951L337.107 431.438L321.746 524.084L270.03 445.695L267.526 441.899L265.022 445.695L213.306 524.084L197.945 431.438L197.202 426.951L193.37 429.4L114.241 479.978L137.892 389.093L139.037 384.692L134.541 385.371L41.6807 399.391L100.253 325.983L103.09 322.429L98.7061 321.22L8.17188 296.259L91.5381 253.021L95.5742 250.927L92.0615 248.04L19.5059 188.413L113.252 182.821L117.791 182.551L115.756 178.483L73.7256 94.502L161.642 127.522L165.898 129.122L165.693 124.579L161.456 30.7627L228.34 96.6865L231.578 99.8789L233.239 95.6455L267.526 8.2168L301.813 95.6455Z" stroke="white" stroke-width="6"/>
</svg>
