<svg width="418" height="418" viewBox="0 0 418 418" fill="none" xmlns="http://www.w3.org/2000/svg">
<path d="M122.135 200.83C119.797 201.946 117.795 202.173 116.129 201.513C114.472 200.826 113.085 199.314 111.969 196.977L98.7995 169.389L105.864 166.016L118.197 191.851C118.509 192.504 118.879 192.95 119.31 193.188C119.732 193.408 120.192 193.4 120.69 193.162L122.443 192.325L125.693 199.131L122.135 200.83ZM99.7578 178.492L112.855 172.24L115.736 178.273L102.638 184.526L99.7578 178.492ZM117.987 169.79L125.568 166.171L138.343 192.934L130.763 196.553L117.987 169.79ZM136.602 170.053C136.094 169.874 135.55 169.817 134.969 169.883C134.388 169.949 133.772 170.138 133.118 170.45C131.692 171.131 130.805 172.124 130.457 173.43C130.119 174.71 130.339 176.167 131.118 177.8L127.254 171.097C127.23 169.145 127.593 167.452 128.343 166.018C129.103 164.558 130.187 163.491 131.597 162.818C132.714 162.285 133.806 161.986 134.872 161.92C135.947 161.829 136.984 161.967 137.982 162.334L136.602 170.053ZM161.355 149.087L165.21 187.802C165.346 189.235 165.247 190.465 164.913 191.489C164.604 192.523 164.034 193.428 163.202 194.206C162.387 194.974 161.266 195.699 159.84 196.381L158.267 197.131L154.993 190.273L156.566 189.522C157.322 189.161 157.867 188.69 158.202 188.108C158.561 187.535 158.69 186.809 158.587 185.93L154.703 152.263L161.355 149.087ZM136.629 160.891L143.281 157.715L163.382 176.676L161.641 184.503L136.629 160.891ZM213.66 138.017C212.913 136.453 211.961 135.43 210.802 134.949C209.653 134.442 208.391 134.517 207.016 135.173C205.658 135.822 204.806 136.735 204.461 137.913C204.125 139.065 204.313 140.389 205.027 141.884L200.758 136.324C200.788 134.22 201.256 132.393 202.162 130.842C203.077 129.266 204.359 128.084 206.009 127.296C207.934 126.377 209.793 126.049 211.586 126.312C213.396 126.566 215.072 127.402 216.614 128.819C218.173 130.227 219.539 132.161 220.712 134.619L228.097 150.088L221.032 153.461L213.66 138.017ZM177.059 141.591L184.124 138.218L196.899 164.981L189.835 168.353L177.059 141.591ZM198.061 145.463C197.314 143.899 196.353 142.88 195.178 142.407C193.994 141.917 192.697 142.008 191.288 142.681C189.982 143.305 189.144 144.159 188.775 145.242C188.415 146.301 188.551 147.492 189.182 148.815L185.81 143.144C185.813 141.116 186.202 139.389 186.978 137.964C187.754 136.538 188.941 135.444 190.54 134.681C192.43 133.778 194.263 133.462 196.039 133.733C197.832 133.996 199.499 134.836 201.041 136.253C202.582 137.67 203.94 139.607 205.113 142.065L212.498 157.535L205.434 160.907L198.061 145.463ZM245.66 142.179C243.082 143.41 240.652 144 238.369 143.95C236.096 143.874 234.051 143.172 232.236 141.844C230.411 140.499 228.896 138.563 227.69 136.036L226.25 133.02C224.986 130.373 224.363 127.895 224.38 125.586C224.413 123.27 225.073 121.203 226.359 119.386C227.661 117.561 229.559 116.054 232.051 114.864C234.389 113.748 236.67 113.377 238.896 113.75C241.121 114.123 243.196 115.221 245.123 117.045C247.058 118.844 248.776 121.317 250.278 124.462L251.115 126.215L232.809 134.954L230.532 130.184L242.392 124.522L242.019 123.941C241.092 122.484 240.031 121.523 238.839 121.058C237.663 120.585 236.422 120.661 235.116 121.284C233.414 122.097 232.333 123.235 231.871 124.701C231.427 126.158 231.648 127.815 232.535 129.671L234.159 133.075C235.029 134.897 236.209 136.064 237.699 136.577C239.206 137.081 240.879 136.895 242.719 136.017C243.664 135.565 244.523 134.955 245.295 134.185C246.059 133.398 246.672 132.515 247.133 131.535L253.705 133.432C252.92 135.368 251.827 137.103 250.428 138.637C249.02 140.153 247.431 141.334 245.66 142.179Z" fill="white"/>
<path d="M245.69 269.346C247.544 269.38 249.074 267.904 249.108 266.051L249.657 235.841C249.69 233.987 248.215 232.457 246.361 232.423C244.507 232.389 242.977 233.865 242.943 235.719L242.456 262.572L215.602 262.084C213.749 262.051 212.218 263.526 212.185 265.38C212.151 267.234 213.627 268.764 215.481 268.798L245.69 269.346ZM218.313 200.17L221.266 201.767L218.313 200.17ZM249.483 208.586L252.521 210.014L249.483 208.586ZM188.788 193.465C187.798 191.897 185.725 191.429 184.157 192.419C182.589 193.409 182.121 195.482 183.111 197.05L185.949 195.257L188.788 193.465ZM245.751 265.99L248.168 263.659C240.151 255.345 230.068 245.975 223.602 235.314C217.262 224.86 214.773 213.773 221.266 201.767L218.313 200.17L215.361 198.573C207.352 213.379 210.765 227.096 217.861 238.796C224.832 250.289 235.72 260.423 243.335 268.32L245.751 265.99ZM218.313 200.17L221.266 201.767C228.001 189.317 236.635 187.66 241.732 189.696C246.879 191.753 250.596 198.325 246.445 207.158L249.483 208.586L252.521 210.014C258.078 198.193 253.461 187.152 244.222 183.461C234.933 179.75 223.128 184.212 215.361 198.573L218.313 200.17ZM249.483 208.586L246.445 207.158C242.133 216.332 232.771 220.213 221.689 218.169C210.543 216.114 197.964 207.996 188.788 193.465L185.949 195.257L183.111 197.05C193.124 212.906 207.202 222.325 220.471 224.772C233.803 227.232 246.614 222.584 252.521 210.014L249.483 208.586Z" fill="white"/>
</svg>
