<svg width="418" height="418" viewBox="0 0 418 418" fill="none" xmlns="http://www.w3.org/2000/svg">
<path d="M108.892 207.52L101.999 193.081L94.7794 196.528L93.0562 192.918L100.276 189.472L96.8294 182.252L104.049 178.806L107.495 186.025L114.715 182.579L116.438 186.189L109.219 189.635L116.111 204.074L108.892 207.52ZM130.3 179.571L133.909 177.848L135.633 181.458L132.023 183.181L137.193 194.011L129.973 197.457L121.357 179.408L128.576 175.962L130.3 179.571ZM143.016 169.069L144.739 172.679L133.909 177.848L132.186 174.238L143.016 169.069ZM159.997 187.557L158.274 183.947L172.713 177.054L170.99 173.444L156.55 180.337L154.827 176.727L151.217 178.451L146.048 167.621L153.267 164.175L158.437 175.004L169.266 169.835L164.097 159.005L171.316 155.559L179.932 173.608L176.323 175.331L178.046 178.941L159.997 187.557ZM211.265 158.65L202.649 140.601L224.308 130.262L226.031 133.872L229.641 132.149L236.534 146.588L229.314 150.034L222.421 135.595L218.812 137.318L225.704 151.757L218.485 155.204L211.592 140.765L207.982 142.488L214.875 156.927L211.265 158.65ZM243.176 143.417L241.453 139.807L237.843 141.53L232.673 130.701L236.283 128.978L234.56 125.368L252.609 116.752L254.332 120.362L257.942 118.639L261.388 125.858L243.339 134.474L245.062 138.084L259.502 131.191L261.225 134.801L243.176 143.417ZM241.616 130.865L252.445 125.695L250.722 122.085L239.893 127.255L241.616 130.865Z" fill="white"/>
<path d="M245.69 269.346C247.544 269.38 249.074 267.904 249.108 266.051L249.657 235.841C249.69 233.987 248.215 232.457 246.361 232.423C244.507 232.389 242.977 233.865 242.943 235.719L242.456 262.572L215.602 262.084C213.749 262.051 212.218 263.526 212.185 265.38C212.151 267.234 213.627 268.764 215.481 268.798L245.69 269.346ZM218.313 200.17L221.266 201.767L218.313 200.17ZM249.483 208.586L252.521 210.014L249.483 208.586ZM188.788 193.465C187.798 191.897 185.725 191.429 184.157 192.419C182.589 193.409 182.121 195.482 183.111 197.05L185.949 195.257L188.788 193.465ZM245.751 265.99L248.168 263.659C240.151 255.345 230.068 245.975 223.602 235.314C217.262 224.86 214.773 213.773 221.266 201.767L218.313 200.17L215.361 198.573C207.352 213.379 210.765 227.096 217.861 238.796C224.832 250.289 235.72 260.423 243.335 268.32L245.751 265.99ZM218.313 200.17L221.266 201.767C228.001 189.317 236.635 187.66 241.732 189.696C246.879 191.753 250.596 198.325 246.445 207.158L249.483 208.586L252.521 210.014C258.078 198.193 253.461 187.152 244.222 183.461C234.933 179.75 223.128 184.212 215.361 198.573L218.313 200.17ZM249.483 208.586L246.445 207.158C242.133 216.332 232.771 220.213 221.689 218.169C210.543 216.114 197.964 207.996 188.788 193.465L185.949 195.257L183.111 197.05C193.124 212.906 207.202 222.325 220.471 224.772C233.803 227.232 246.614 222.584 252.521 210.014L249.483 208.586Z" fill="white"/>
</svg>
